{"title":"Intouchables.2011.1080p.BluRay.x265.10bit-z97","magnet":"magnet:?xt=urn:btih:2fbd8be5bce17e9a7a59897edf01e65de6b8b00b&dn=Intouchables.2011.1080p.BluRay.x265.10bit-z97&tr=udp%3A%2F%2Ftracker.leechers-paradise.org%3A6969&tr=udp%3A%2F%2Fzer0day.ch%3A1337&tr=udp%3A%2F%2Fopen.demonii.com%3A1337&tr=udp%3A%2F%2Ftracker.coppersurfer.tk%3A6969&tr=udp%3A%2F%2Fexodus.desync.com%3A6969","uploader":"48848448","categoryP":"video","categoryS":"hd___movies","size":"1910705108","seeders":"1","leechers":"8","description":"                      &#x2500;&#x2500;&#x2500;&#x25A0; RELEASE NOTES &#x25A0;&#x2500;&#x2500;&#x2500;\r\n&#x2584;&#x2584;&#x2584;&#x2584;&#x2584;&#x2584;&#x2584;&#x2584;&#x2584;&#x2584;&#x2584;&#x2584;&#x2584;&#x2584;&#x2584;&#x2584;&#x2584;&#x2584;&#x2584;&#x2584;&#x2584;&#x2584;&#x2584;&#x2584;&#x2584;&#x2584;&#x2584;&#x2584;&#x2584;&#x2584;&#x2584;&#x2584;&#x2584;&#x2584;&#x2584;&#x2584;&#x2584;&#x2584;&#x2584;&#x2584;&#x2584;&#x2584;&#x2584;&#x2584;&#x2584;&#x2584;&#x2584;&#x2584;&#x2584;&#x2584;&#x2584;&#x2584;&#x2584;&#x2584;&#x2584;&#x2584;&#x2584;&#x2584;&#x2584;&#x2584;&#x2584;&#x2584;&#x2584;&#x2584;&#x2584;&#x2584;\r\n\r\n            Intouchables 2011 1080p BluRay x265 10bit\r\n\r\niMDB url                       : www.imdb.com/title/tt1675434\r\niMDB Rating                    : 8.6/10 from 563,373 votes\r\nRelease                        : 2011 - nOVEMBER 22ND\r\nGenre                          : Biography, Comedy, Drama\r\nSource                         : BLURAY\r\nSubs                           : ENG,DAN,SWE\r\n\r\n                    &#x2500;&#x2500;&#x2500;&#x25A0; RELEASE INFORMATION &#x25A0;&#x2500;&#x2500;&#x2500;\r\n&#x2584;&#x2584;&#x2584;&#x2584;&#x2584;&#x2584;&#x2584;&#x2584;&#x2584;&#x2584;&#x2584;&#x2584;&#x2584;&#x2584;&#x2584;&#x2584;&#x2584;&#x2584;&#x2584;&#x2584;&#x2584;&#x2584;&#x2584;&#x2584;&#x2584;&#x2584;&#x2584;&#x2584;&#x2584;&#x2584;&#x2584;&#x2584;&#x2584;&#x2584;&#x2584;&#x2584;&#x2584;&#x2584;&#x2584;&#x2584;&#x2584;&#x2584;&#x2584;&#x2584;&#x2584;&#x2584;&#x2584;&#x2584;&#x2584;&#x2584;&#x2584;&#x2584;&#x2584;&#x2584;&#x2584;&#x2584;&#x2584;&#x2584;&#x2584;&#x2584;&#x2584;&#x2584;&#x2584;&#x2584;&#x2584;&#x2584;\r\n\r\n\r\nVideo\r\nID                             : 1\r\nFormat                         : HEVC\r\nDuration                       : 1 h 52 min\r\nBit rate                       : 1 824 kb/s\r\nWidth                          : 1 920 pixels\r\nHeight                         : 1 040 pixels\r\nDisplay aspect ratio           : 1.85:1\r\nFrame rate mode                : Constant\r\nFrame rate                     : 24.000 FPS\r\nColor space                    : YUV\r\nChroma subsampling             : 4:2:0\r\nBit depth                      : 10 bits\r\nStream size                    : 1.43 GiB (80%)\r\nWriting library                : x265 2.4+89 [64 bit] 10bit\r\nLanguage                       : French\r\nDefault                        : Yes\r\n\r\nAudio\r\nID                             : 2\r\nFormat                         : AC-3\r\nDuration                       : 1 h 52 min\r\nBit rate mode                  : Constant\r\nBit rate                       : 448 kb/s\r\nChannel(s)                     : 6 channels\r\nChannel positions              : Front: L C R, Side: L R, LFE\r\nSampling rate                  : 48.0 kHz\r\nFrame rate                     : 31.250 FPS (1536 spf)\r\nBit depth                      : 16 bits\r\nCompression mode               : Lossy\r\nStream size                    : 359 MiB (20%)\r\nLanguage                       : French\r\nDefault                        : Yes","last_updated":"2017-06-29T12:01:02.514Z","parsed":{"xt":"urn:btih:2fbd8be5bce17e9a7a59897edf01e65de6b8b00b","dn":"Intouchables.2011.1080p.BluRay.x265.10bit-z97","tr":["udp://exodus.desync.com:6969","udp://open.demonii.com:1337","udp://tracker.coppersurfer.tk:6969","udp://tracker.leechers-paradise.org:6969","udp://zer0day.ch:1337"],"infoHash":"2fbd8be5bce17e9a7a59897edf01e65de6b8b00b","infoHashBuffer":{"type":"Buffer","data":[47,189,139,229,188,225,126,154,122,89,137,126,223,1,230,93,230,184,176,11]},"name":"Intouchables.2011.1080p.BluRay.x265.10bit-z97","announce":["udp://exodus.desync.com:6969","udp://open.demonii.com:1337","udp://tracker.coppersurfer.tk:6969","udp://tracker.leechers-paradise.org:6969","udp://zer0day.ch:1337"],"urlList":[]}}